<svg width="180" height="79" viewBox="0 0 180 79" fill="none" xmlns="http://www.w3.org/2000/svg">
<path d="M38.3438 75.3125C31.8438 75.3125 25.9219 73.7656 20.5781 70.6719C15.2344 67.5781 11.0312 63.3438 7.96875 57.9688C4.90625 52.5938 3.375 46.625 3.375 40.0625C3.375 33.5 4.90625 27.5312 7.96875 22.1562C11.0312 16.7812 15.2344 12.5469 20.5781 9.45312C25.9219 6.35938 31.8438 4.8125 38.3438 4.8125C42.625 4.8125 46.6719 5.5 50.4844 6.875C54.3281 8.25 57.75 10.2031 60.75 12.7344C63.7812 15.2344 66.2812 18.1875 68.25 21.5938L54.2812 28.625C52.625 25.8438 50.4062 23.6562 47.625 22.0625C44.8438 20.4688 41.75 19.6875 38.3438 19.7188C34.75 19.7188 31.4844 20.6094 28.5469 22.3906C25.6406 24.1406 23.3438 26.5781 21.6562 29.7031C19.9688 32.7969 19.125 36.25 19.125 40.0625C19.125 43.8438 19.9531 47.2969 21.6094 50.4219C23.2969 53.5156 25.5938 55.9531 28.5 57.7344C31.4375 59.5156 34.6875 60.4062 38.25 60.4062C41.6875 60.4062 44.7969 59.625 47.5781 58.0625C50.3906 56.4688 52.625 54.2812 54.2812 51.5L68.25 58.5312C66.2812 61.9375 63.7812 64.9062 60.75 67.4375C57.75 69.9375 54.3281 71.875 50.4844 73.25C46.6719 74.625 42.625 75.3125 38.3438 75.3125Z" fill="url(#paint0_linear_1_1391)"/>
<rect x="54" y="35" width="20" height="10" fill="url(#paint1_linear_1_1391)"/>
<path d="M78.6001 70.96C75.2934 70.96 72.8401 70.1067 71.2401 68.4C69.6401 66.64 68.8401 64.2933 68.8401 61.36C68.8401 60.4533 68.8934 59.5733 69.0001 58.72C69.1068 57.8667 69.3201 56.6133 69.6401 54.96L76.1201 19.92L78 10.5L96.0001 10.8L90 37.84L84.0001 61.92H81.2401L92.4401 50.48L98.8401 56.16L93.9601 61.76C91.2401 64.8 88.6801 67.0933 86.2801 68.64C83.9334 70.1867 81.3734 70.96 78.6001 70.96Z" fill="#314FBC"/>
<path d="M105.649 70.96C103.462 70.96 101.649 70.5867 100.209 69.84C98.7688 69.04 97.5955 67.9467 96.6888 66.56C95.7822 65.12 95.1422 63.3867 94.7688 61.36C94.3955 59.3333 94.2088 57.0667 94.2088 54.56C94.2088 50.56 94.6355 46.9333 95.4888 43.68C96.3422 40.3733 97.5688 37.5467 99.1688 35.2C100.769 32.8533 102.716 31.04 105.009 29.76C107.356 28.4267 109.969 27.76 112.849 27.76C115.996 27.76 118.316 28.5333 119.809 30.08C121.356 31.5733 122.422 33.68 123.009 36.4H123.569L124.849 28.72L140 28.88L134.5 62.32L134.623 61.5752L133.5 70H127.889C124.849 70 122.556 69.2533 121.009 67.76C119.516 66.2667 118.982 64.08 119.409 61.2L119.569 60.16H119.409C118.609 61.76 117.542 63.2267 116.689 64.56C115.889 65.84 114.956 66.96 113.889 67.92C112.876 68.88 111.702 69.6267 110.369 70.16C109.036 70.6933 107.462 70.96 105.649 70.96ZM110.929 61.92C112.316 61.92 113.569 61.5733 114.689 60.88C115.809 60.1867 116.822 59.2533 117.729 58.08C118.316 57.3333 118.982 56.2667 119.729 54.88C120.476 53.4933 120.982 51.9467 121.249 50.24L122.369 43.6C122.742 41.4133 122.476 39.7333 121.569 38.56C120.716 37.3867 119.036 36.8 116.529 36.8C113.596 36.8 111.436 37.6533 110.049 39.36C108.662 41.0133 107.702 43.4133 107.169 46.56L106.369 51.36C106.262 51.84 106.182 52.4 106.129 53.04C106.076 53.6267 106.049 54.2933 106.049 55.04C106.049 56.96 106.396 58.5867 107.089 59.92C107.782 61.2533 109.062 61.92 110.929 61.92Z" fill="#314FBC"/>
<path d="M145.858 10.8H162.018L156.872 38.8L153.378 38.56C154.178 36.96 155.004 35.52 155.858 34.24C156.764 32.9067 157.751 31.76 158.818 30.8C159.938 29.84 161.164 29.0933 162.498 28.56C163.884 28.0267 165.458 27.76 167.218 27.76C169.404 27.76 171.244 28.1333 172.738 28.88C174.284 29.6267 175.538 30.72 176.498 32.16C177.458 33.5467 178.151 35.2267 178.578 37.2C179.058 39.1733 179.298 41.36 179.298 43.76C179.298 47.8667 178.844 51.6 177.938 54.96C177.031 58.2667 175.751 61.12 174.098 63.52C172.444 65.8667 170.444 67.7067 168.098 69.04C165.804 70.32 163.218 70.96 160.338 70.96C157.084 70.96 154.604 70.2133 152.898 68.72C151.244 67.1733 150.124 65.04 149.538 62.32L156.578 63.52L160.338 70.96L136.5 70L145.858 10.8ZM156.578 61.92C159.458 61.92 161.671 61.0933 163.218 59.44C164.764 57.7333 165.804 55.3067 166.338 52.16L167.138 47.36C167.244 46.88 167.324 46.3467 167.378 45.76C167.431 45.12 167.458 44.4533 167.458 43.76C167.404 41.7867 166.978 40.1333 166.178 38.8C165.431 37.4667 164.044 36.8 162.018 36.8C160.578 36.8 159.298 37.1467 158.178 37.84C157.058 38.5333 156.018 39.4933 155.058 40.72C154.418 41.4667 153.698 42.5333 152.898 43.92C152.098 45.2533 151.564 46.7733 151.298 48.48L150.178 55.12C149.804 57.3067 150.124 58.9867 151.138 60.16C152.204 61.3333 154.018 61.92 156.578 61.92Z" fill="#314FBC"/>
<defs>
<linearGradient id="paint0_linear_1_1391" x1="2.43243" y1="38.5" x2="69.5678" y2="38.9733" gradientUnits="userSpaceOnUse">
<stop stop-color="#75B2FA"/>
<stop offset="1" stop-color="#255AD8"/>
</linearGradient>
<linearGradient id="paint1_linear_1_1391" x1="54.6757" y1="39.8734" x2="73.3208" y2="40.1619" gradientUnits="userSpaceOnUse">
<stop stop-color="#75B2FA"/>
<stop offset="1" stop-color="#255AD8"/>
</linearGradient>
</defs>
</svg>
