<?xml version="1.0" encoding="utf-8"?>
<!-- Uploaded to: SVG Repo, www.svgrepo.com, Generator: SVG Repo Mixer Tools -->
<svg fill="#000000" version="1.1" id="Layer_1" xmlns="http://www.w3.org/2000/svg" xmlns:xlink="http://www.w3.org/1999/xlink" 
	 width="800px" height="800px" viewBox="0 0 256 203" xml:space="preserve">
<path d="M84.2,2.3c18.7,0,33.8,15.1,33.8,33.8s-15.1,33.8-33.8,33.8S50.4,54.7,50.4,36.1S65.5,2.3,84.2,2.3z M188.8,151.4
	c4.3,0,7.8,2.2,7.8,5s-3.5,5-7.8,5c-4.3,0-7.8-2.2-7.8-5S184.5,151.4,188.8,151.4z M149.3,112.1l-3.9,11.1c-4-8.3-8-16.3-11.1-21.8
	c-3.4-7.2-8.7-13.3-15.3-17.6c-6.6-4.3-14.5-6.8-22.9-6.8H44.2C20.9,76.9,2,96,2,119.1V183c0,9.8,7.9,17.7,17.7,17.7h202.7
	l31.6-88.6H149.3z M215.5,190.9H88.6v-5.7c0-8.8-7.2-16-16-16H33.5v-43.3c0-2.2,1.8-3.9,3.9-3.9s3.9,1.8,3.9,3.9v35.4h31.2
	c12.4,0,22.6,9.5,23.8,21.7h38.1l21.7-61H240L215.5,190.9z"/>
</svg>