<svg xmlns="http://www.w3.org/2000/svg" viewBox="0 0 2048 601" width="1em" height="1em" aria-hidden="true" data-slot="icon"><path fill="#00A95E" d="M873 0h2v601l-8-1-57-11-133-25-176-33-2-2V424l1-1h69l1 49 87 15 142 25 4 1-1-56V163l1-76-231 42h-3v56h-69l-1-1V72l4-2 164-31L837 7z"/><path fill="#F69322" d="m873 0 2 1-8 10-11 13-9 11-12 14-9 11-13 15-9 11-6 2-226 41h-3v56h-69l-1-1V72l4-2 164-31L837 7z"/><path fill="#0159A8" d="M500 423h69l1 49 87 15 142 25 5 2 10 11 11 14 12 14 9 11 13 16 11 13 4 6v2l-11-2-107-20-68-13-65-12-73-14-49-9-2-2V424z"/><path fill="#201F20" d="M116 210h64l-2 4-10 11-9 11-11 12-9 11-12 13-7 8-9 10-4 5 2 4 27 33 14 17 9 11 11 13 16 20v1h-69l-14-18-14-19-13-17-21-28-1 82H0V211h54l1 73 11-13 8-10 13-16 11-14 11-13z"/><path fill="#201F21" d="M311 207h19l23 2 23 4 13 4 1 1v40l-30-10-16-3h-30l-17 3-14 5-12 7-10 10-7 14-2 10v18l3 12 5 10 9 10 10 7 11 5 12 3 8 1h16l11-2v-62l1-1h52v93l-8 3-25 4-21 2h-40l-20-3-15-4-15-6-16-9-13-12-7-8-8-14-5-15-2-12v-23l4-20 7-16 8-11 11-11 14-9 10-5 18-6 21-4z"/><path fill="#211F21" d="M446 210h23l31 1v105l1 14 3 11 4 8 8 7 7 3 6 1h11l13-4 7-6 5-9 3-14 1-116h54v125l-3 14-5 11-6 9-5 6-11 8-12 6-13 4-18 3h-31l-19-3-15-5-11-6-10-8-7-8-8-16-3-13-1-14V212z"/><path fill="#201F21" d="M1510 207h29v67h15v-67h29v186l-1 1h-28v-90h-15v90h-29v-35h-110l-1-1V212h94v27h-63v93h80zM1105 202h31v107l-1 1-17 1 8 8 7 14 2 8v16l-3 11-6 11-8 9-13 9-11 5-17 4h-19l-14-3-14-6-12-9-9-10-6-12-2-8v-17l4-13 6-10 7-8 13-9 11-5 12-3h27l15 4 8 4 1-18h-27v-24l27-1v-12h-27v-25h27zm-45 117-11 4-9 7-6 10-1 3v12l3 8 8 9 14 7 6 1h9l13-4 8-6 6-7 3-8v-12l-4-9-7-8-12-6-4-1zM1679 196h33v18h50v25l-19 1 8 8 6 11 1 4v16l-4 10-6 8-9 8-14 7-15 4-9 1h-12l-15-2-16-6-10-7-9-9-5-10-1-3v-18l4-9 6-8 5-5-19-1-1-5 1-20h50zm11 52-11 3-8 6-4 5-2 5v8l4 8 7 6 9 4 14 1 10-2 9-5 6-7 2-5v-8l-4-8-8-7-13-4z"/><path fill="#202023" d="M1897 282h28l1 1 1 77h23v-73l1-5h29l1 1v78h67v27h-188l-1-1v-26l36-1 1-77z"/><path fill="#211F20" d="M1868 210h170l1 28v105l-1 1h-30l-1-6 1-101h-140l-1-4v-22z"/><path fill="#211F21" d="M1180 214h108v32l-2 18-4 16-5 12-6 10-9 11-12 10-14 9-19 9-17 5-13 2h-10v-27l25-6 17-7 14-9 9-8 7-10 4-10 2-10 1-10v-9h-74l-2-1-1-26z"/><path fill="#201F22" d="M959 207h108l1 1-1 28-4 16-6 12-10 13-9 8-15 9-15 6-19 5-26 3h-6v-27l23-2 17-4 16-7 9-7 3-1 2-4 5-8 3-14-75-1-1-1z"/><path fill="#202124" d="M1641 325h167l1 1v75l-1 1h-29l-1-21v-29h-137l-1-1v-25z"/><path fill="#F25C24" d="m499 72 4 2 13 10 14 12 11 9 17 14 11 9v57h-69l-1-1z"/><path fill="#221F20" d="M1319 207h33v183l-1 1h-31l-1-8z"/><path fill="#212022" d="M1779 201h30v45h25v26l-1 1h-24v40h-30l-1-1V202z"/></svg>