<svg xmlns="http://www.w3.org/2000/svg" aria-hidden="true" data-slot="icon" viewBox="0 0 24 24" width="1em" height="1em" fill="currentColor"><path d="M17.5 12a5.5 5.5 0 1 1 0 11 5.5 5.5 0 0 1 0-11M12 1.999c5.524 0 10.002 4.478 10.002 10.002q0 .395-.03.782a6.5 6.5 0 0 0-1.475-1.052A8.501 8.501 0 0 0 3.498 12a8.5 8.5 0 0 0 8.234 8.497c.28.54.635 1.036 1.05 1.474a10 10 0 0 1-.782.03C6.476 22.001 1.998 17.523 1.998 12S6.476 1.999 12 1.999m5.5 12-.09.008a.5.5 0 0 0-.402.402L17 14.5V17h-2.502l-.09.008a.5.5 0 0 0-.402.402l-.008.09.008.09a.5.5 0 0 0 .402.402l.09.008H17v2.503l.008.09a.5.5 0 0 0 .402.402l.09.008.09-.008a.5.5 0 0 0 .402-.402l.008-.09V18l2.504.001.09-.008a.5.5 0 0 0 .402-.402l.008-.09-.008-.09a.5.5 0 0 0-.403-.402l-.09-.008H18v-2.5l-.008-.09a.5.5 0 0 0-.402-.403zm-9.038.785a4.5 4.5 0 0 0 2.63 1.626 6.5 6.5 0 0 0-.079 1.51 5.98 5.98 0 0 1-3.73-2.208.75.75 0 1 1 1.179-.928M9 8.75a1.25 1.25 0 1 1 0 2.499A1.25 1.25 0 0 1 9 8.75m6 0a1.25 1.25 0 1 1 0 2.499 1.25 1.25 0 0 1 0-2.499"/></svg>