<svg xmlns="http://www.w3.org/2000/svg" viewBox="0 -2.5 64 64" width="1em" height="1em" fill="currentColor" aria-hidden="true" data-slot="icon"><g fill-rule="evenodd" stroke="#6B6C6E" stroke-width="2"><path d="M19 22H3.9C1.1 22 1 24.1 1 26.8v24.3c0 2.6.1 4.8 2.9 4.8H19c2.8 0 2.9-2.1 2.9-4.8V26.8c0-2.6-.1-4.8-2.9-4.8Z"/><path d="M21.7 52.3h1.4c3.8-.1 6.3 5.7 9.2 5.7h22.6c2.8 0 3.4-4.2 3.3-6 0 0 3.5-1.6 1.9-8 .2-.1 2-1.8 2-5.1S60.2 34 60.2 34s1.9-2.1 1.9-5.2-2.7-4.8-5.5-4.8h-8.3c-7.2 0-6.6-3.9-6.6-3.9S40.9 10 38.3 5.3C35.1-.5 28.7 1.4 31.1 9c1.8 5.6-6.3 14-9.3 16.8"/></g></svg>