<svg xmlns="http://www.w3.org/2000/svg" aria-hidden="true" data-name="Lager 62" data-slot="icon" viewBox="0 0 32 32" width="1em" height="1em" fill="currentColor"><g data-name="Checkmark 1"><path d="m15.293 21.717-7-6.834a.943.943 0 0 1 0-1.367l1.414-1.368a1.03 1.03 0 0 1 1.414 0L16 16.934 26.879 6.283a1.025 1.025 0 0 1 1.414 0l1.414 1.367a.94.94 0 0 1 0 1.366l-13 12.7a1.025 1.025 0 0 1-1.414.001" data-name="Path 76"/></g><path d="M30.02 16h-.04A1.98 1.98 0 0 0 28 17.98V27a1 1 0 0 1-1 1H5a1 1 0 0 1-1-1V5a1 1 0 0 1 1-1h17.02A1.98 1.98 0 0 0 24 2.02v-.04A1.98 1.98 0 0 0 22.02 0H2a2 2 0 0 0-2 2v28a2 2 0 0 0 2 2h28a2 2 0 0 0 2-2V17.98A1.98 1.98 0 0 0 30.02 16" data-name="Path 77"/></svg>