<svg xmlns="http://www.w3.org/2000/svg" xml:space="preserve" width="1040.665px" height="372px" x="0px" y="0px" viewBox="0 0 1040.665 372"><path fill="#060000" d="M184.299 74.18s-18.819 73.049-22.291 86.451c-12.278 47.388-37.992 73.88-73.81 74.109-23.846.153-32.895-18.311-25.362-52.733L88.003 77.515c.411-1.709-.888-3.334-2.645-3.335H28.656s-13.813 57.012-22.802 91.401c-16.643 63.678 2.088 113.47 57.633 117.297 29.918 2.061 55.942-12.589 75.695-31.717l.977.099c-11.405 38.588-30.676 59.994-68.594 67.237-14.488 2.768-35.229.35-50.305-7.515-1.341-.699-2.973-.017-3.342 1.45l-13.711 54.49c14.627 4.462 41.528 7.327 70.406 2.768 50.717-8.007 111.729-46.233 132.373-134.634l38.686-157.452a2.767 2.767 0 0 0-2.686-3.425h-58.687zM1037.962 217.832h-48.673l37.535-140.25a2.701 2.701 0 0 0-2.609-3.401h-50.668l-39.186 143.651H891.57l37.913-140.219a2.701 2.701 0 0 0-2.6-3.433h-49.638s-36.813 133.418-42.533 153.688c-20.695 73.333-66.781 42.497-92.053 36.229 38.67-23.481 67.611-52.152 81.8-92.807 11.402-32.677 7.298-68.448-16.179-89.098-22.763-20.022-50.302-23.959-76.398-20.346-29.896 4.139-58.068 23.048-72.326 46.257l28.922 36.171c1.051 1.315 3.122 1.105 3.85-.412 6.688-13.944 19.397-26.891 32.168-31.237 14.842-5.05 31.097-4.647 42.05 6.006 10.663 10.371 11.509 33.361-.443 55.576-20.126 37.406-76.638 75.506-123.262 92.623l21.189 50.424c.577 1.372 2.3 1.873 3.478.964 12.146-9.369 32.301-13.714 47.391-12.448 32.574 2.734 39.926 12.741 69.972 16.353 44.279 5.321 77.753-19.398 91.685-59.566l45.394.274-23.895 87.243a2.703 2.703 0 0 0 2.602 3.431h52.169l24.243-90.383 52.476.28 11.032-42.184a2.704 2.704 0 0 0-2.615-3.386M566.195 166.883c-25.662-12.573-43.413-24.073-41.303-40.072 1.418-10.768 14.581-18.701 34.51-16.875 12.412 1.137 23.077 6.96 33.104 16.072 5.752 5.227 12.033 12.712 15.802 19.245.749 1.299 2.526 1.506 3.59.448l36.547-36.329c-25.324-35.192-53.975-47.874-92.751-48.744-31.762-.712-67.13 9.994-82.438 43.191-8.902 19.313-9.477 45.782 11.003 69.869 10.434 12.272 27.698 25.087 49.3 35.585 28.528 13.863 40.948 24.263 38.914 39.011-2.996 21.717-24.953 28.066-43.883 25.574-28.735-3.783-47.839-19.982-44.7-49.304l-54.904-14.917c-1.343-.365-2.651.539-2.883 1.911-1.111 6.579-3.977 13.718-7.728 19.987-16.057 26.838-48.766 45.958-84.635 38.372-44.925-9.5-53.453-54.523-38.377-103.287 15.109-48.881 69.901-70.089 89.421-56.462 14.546 10.153 9.651 32.683-4.762 48.322-14.66 15.904-42.246 25.05-70.908 25.605-2.17.042-3.414 2.504-2.217 4.313l23.086 34.403c61.017.229 112.929-42.04 119.507-80.386 6.065-35.354-10.276-65.34-44.674-76.758-24.201-8.033-57.478-4.691-84.1 5.794-37.318 14.696-68.484 47.267-81.134 86.062-16.393 50.274-11.101 93.368 11.43 122.963 17.522 23.019 43.754 40.287 84.101 41.948 41.361 1.702 81.899-12.758 107.435-42.949 10.66 18.602 44.028 40.985 85.223 42.896 64.313 2.983 102.407-32.261 106.239-73.653 3.389-36.652-25.276-60.993-67.815-81.835"/><path fill="#0080FF" d="M104.833 62.712c16.019 0 22.234-12.203 26.305-31.356C135.102 12.711 134.186 0 118.163 0S95.82 12.711 91.857 31.356c-4.071 19.153-3.043 31.356 12.976 31.356M166.189 62.712c16.019 0 22.234-12.203 26.305-31.356C196.458 12.711 195.542 0 179.52 0s-22.343 12.711-26.306 31.356c-4.071 19.153-3.044 31.356 12.975 31.356"/></svg>